<?xml version="1.0" standalone="no"?>
<!DOCTYPE svg PUBLIC "-//W3C//DTD SVG 20010904//EN"
 "http://www.w3.org/TR/2001/REC-SVG-20010904/DTD/svg10.dtd">
<svg version="1.0" xmlns="http://www.w3.org/2000/svg"
 width="272.000000pt" height="272.000000pt" viewBox="0 0 272.000000 272.000000"
 preserveAspectRatio="xMidYMid meet">
<metadata>
Created by potrace 1.11, written by Peter Selinger 2001-2013
</metadata>
<g transform="translate(0.000000,272.000000) scale(0.100000,-0.100000)"
fill="#000000" stroke="none">
<path d="M0 1360 l0 -1360 1360 0 1360 0 0 1360 0 1360 -1360 0 -1360 0 0
-1360z m825 739 c12 -12 520 -1549 538 -1625 10 -44 -8 -54 -98 -54 -60 0 -88
4 -98 15 -13 12 -79 206 -134 388 l-14 47 -317 0 -318 0 -64 -211 c-50 -162
-70 -215 -86 -226 -32 -20 -163 -14 -177 9 -9 13 48 196 252 820 144 442 269
813 277 825 17 27 39 32 142 29 56 -2 87 -7 97 -17z m1345 1 c87 -14 198 -68
251 -122 121 -123 151 -355 68 -525 -34 -72 -108 -143 -186 -181 l-53 -26 54
-48 c71 -63 116 -151 220 -435 114 -309 115 -312 91 -329 -29 -21 -157 -19
-183 4 -12 10 -53 111 -102 252 -121 343 -157 408 -257 456 -50 25 -68 28
-157 29 l-101 0 -3 -365 c-2 -419 5 -390 -100 -390 -114 0 -102 -97 -102 831
l0 810 25 24 24 25 223 0 c123 0 252 -5 288 -10z"/>
<path d="M571 1482 c-68 -218 -126 -405 -129 -414 -4 -17 13 -18 257 -18 143
0 261 3 261 7 0 12 -253 808 -259 815 -3 4 -62 -172 -130 -390z"/>
<path d="M1817 1923 c-4 -3 -7 -132 -7 -286 l0 -279 158 4 c146 4 160 6 208
30 104 55 151 149 141 284 -11 151 -87 226 -250 244 -95 11 -241 13 -250 3z"/>
</g>
</svg>
