<svg xmlns="http://www.w3.org/2000/svg" width="55mm" height="55mm" viewBox="0 0 55 55">
  <path fill="#282828" d="M14.072 12.58c-2.313.123-5.64-.93-5.328-3.796-.275-2.371.437-6.227 3.56-6.039 2.574-.397 6.659.51 6.211 3.879.418 2.452-.625 5.44-3.299 5.953-.381-.008-.762.02-1.144.003zm-.325-1.681c1.735.252 3.556-1.12 3.179-2.986.391-1.627-.503-3.945-2.522-3.515-1.882-.53-4.549.313-3.959 2.737-.42 1.553.095 3.898 2.133 3.714.39.024.78.025 1.17.05zm-.333-3.045c.072-1.316 1.076.226 0 0z"/>
  <path fill="#fff" d="M24.652 18.117c-11.784 0-21.336 9.553-21.336 21.336 0 4.382 1.321 8.455 3.586 11.843h36.356c1.913-3.495 2.73-7.633 2.73-11.843 0-10.905-9.553-21.336-21.336-21.336"/>
  <path fill="#282827" d="M5.35 50.3C.21 41.57 2.261 29.395 10.04 22.83c7.428-6.818 19.668-7.401 27.58-1.085 6.875 5.044 10.487 14.038 8.821 22.43-.346 2.207-.959 4.374-1.919 6.415-1.556.285-2.127.024-1.2-1.27 2.997-7.154 2.503-15.985-2.5-22.14-4.944-6.701-14.135-9.994-22.13-7.37-9.19 2.62-15.635 12.28-14.457 21.776a20.4 20.4 0 0 0 3.18 9.004c-.607-.187-1.753.383-2.066-.29z"/>
  <path fill="#282827" d="M18.225 46.988c-1.99-.046-1.367-3.26.47-2.622 1.497.443 1.082 2.718-.47 2.622zM30.937 46.988c-1.99-.046-1.367-3.26.47-2.622 1.497.443 1.082 2.718-.47 2.622z"/>
  <path fill="#fff" d="M1.363 44.869l11.37-12.058-2.737 8.579c8.876-6.46 18.195-5.438 24.756-3.511 6.964 2.044 11.84-4.106 7.067-10.668-2.268-3.118-5.38-5.707-8.913-7.277-9.269-4.117-18.587-1.717-24.873 4.633-6.66 6.727-6.67 14.188-6.67 20.302"/>
  <path fill="#282827" d="M.564 44.835c-.267-7.064.94-14.533 5.978-19.888 5.664-6.647 15.32-9.612 23.662-6.911 5.96 1.807 11.567 5.995 13.924 11.851 1.63 4.008-1.318 8.845-5.664 9.09-3.884.287-7.479-1.757-11.383-1.716-6.736-.571-13.454 1.894-18.597 6.202.729-2.32 1.538-4.617 2.08-6.991-3.508 3.292-6.652 6.948-10 10.4v-2.037zm2.892-3.39l11.137-11.811-3.081 9.66c7.234-4.34 16.122-4.62 24.02-2.083 3.032.936 7.033-.702 7.355-4.152.301-4.34-3.337-7.658-6.426-10.152-7.187-5.439-17.897-5.709-25.106-.168-5.688 4.008-9.01 10.803-9.095 17.717.122 1.677-.824 3.538 1.196.99z"/>
  <path fill="#fff" d="M30.132 17.625c-1.347 3.512-5.256 5.473-8.878 4.454-4.08-1.15-6.235-4.428-5.717-8.587.514-4.137 3.31-7.763 6.531-12.234-2.646 5.634-.398 6.162.313 6.133.703-.028 1.729.092 3.189.577a7.38 7.38 0 0 1 4.562 9.657"/>
  <path fill="#282827" d="M22.914 22.509c-4.78-.053-8.97-4.529-8.258-9.353.465-4.807 3.673-8.696 6.346-12.493 1.546.412 1.504 1.294.895 2.485-.355 1.084-.769 3.262 1.013 2.796 4.51.084 8.648 3.857 8.495 8.479.011 4.5-3.988 8.292-8.491 8.086zm.355-1.612c4.47.122 7.913-5.009 6.013-9.086-1.174-3.15-4.693-4.308-7.763-4.383-1.343-.05-1.571-3.368-2.387-1.274-2.328 3.432-4.366 8.485-1.434 12.173 1.347 1.612 3.478 2.565 5.57 2.57z"/>
  <path fill="#fff" d="M26.413 30.934c-.53 0-1.026-.236-1.362-.647l-1.018-1.247a1.754 1.754 0 0 1 .176-2.403 1.725 1.725 0 0 1-.578-.46l-.232-.285a1.755 1.755 0 0 1 .249-2.467l.146-.12-1.492-1.83a1.908 1.908 0 0 1 1.477-3.11 1.9 1.9 0 0 1 1.475.698l6.365 7.835a1.908 1.908 0 0 1-1.478 3.108 1.9 1.9 0 0 1-1.318-.529l-1.298 1.06a1.763 1.763 0 0 1-1.112.397"/>
  <path fill="#282828" d="M26.543 30.924c-1.943-.345-3.831-2.781-2.895-4.739-1.006-.891-1.225-2.45-.375-3.53-1.58-1.137-2.516-3.909-.433-5.048 2.292-1.277 3.944 1.557 5.094 3.05 1.46 2.273 3.974 3.991 4.88 6.565.367 1.999-2.085 3.508-3.763 2.431-.715.596-1.455 1.367-2.508 1.27zm.191-1.066c1.309-.122 2.03-2.349 3.124-1.037 1.438.69 2.641-1.47 1.384-2.4-2.29-2.568-4.18-5.593-6.658-7.949-1.451-.698-2.64 1.471-1.387 2.4.61.945 2.261 1.87.832 2.658-.953 1.287 1.198 3.1 2.234 1.717.75-.378-1.411.944-1.72 1.636-.426 1.136 1.028 2.92 2.191 2.975z"/>
</svg>