<?xml version="1.0" encoding="UTF-8" standalone="no"?>
<!-- Created with Inkscape (http://www.inkscape.org/) -->

<svg
   xmlns:dc="http://purl.org/dc/elements/1.1/"
   xmlns:cc="http://creativecommons.org/ns#"
   xmlns:rdf="http://www.w3.org/1999/02/22-rdf-syntax-ns#"
   xmlns:svg="http://www.w3.org/2000/svg"
   xmlns="http://www.w3.org/2000/svg"
   xmlns:sodipodi="http://sodipodi.sourceforge.net/DTD/sodipodi-0.dtd"
   xmlns:inkscape="http://www.inkscape.org/namespaces/inkscape"
   viewBox="0 0 50 50"
   version="1.1"
   id="svg8"
   sodipodi:docname="keybase2.svg"
   bordercolor="#666666"
   inkscape:version="0.92.3 (2405546, 2018-03-11)">
  <defs
     id="defs2">
    <clipPath
       id="clipPath26"
       clipPathUnits="userSpaceOnUse">
      <path
         inkscape:connector-curvature="0"
         id="path24"
         d="M 0,600 H 600 V 0 H 0 Z" />
    </clipPath>
  </defs>
  <sodipodi:namedview
     id="base"
     pagecolor="#ffffff"
     bordercolor="#666666"
     borderopacity="1.0"
     inkscape:pageopacity="0.0"
     inkscape:pageshadow="2"
     inkscape:zoom="2.8"
     inkscape:cx="51.464865"
     inkscape:cy="89.420437"
     inkscape:document-units="mm"
     inkscape:current-layer="layer1"
     showgrid="false"
     inkscape:snap-global="false"
     inkscape:window-width="1920"
     inkscape:window-height="1017"
     inkscape:window-x="-8"
     inkscape:window-y="-8"
     inkscape:window-maximized="1"
     fit-margin-top="0"
     fit-margin-left="0"
     fit-margin-right="0"
     fit-margin-bottom="0" />
  <metadata
     id="metadata5">
    <rdf:RDF>
      <cc:Work
         rdf:about="">
        <dc:format>image/svg+xml</dc:format>
        <dc:type
           rdf:resource="http://purl.org/dc/dcmitype/StillImage" />
        <dc:title></dc:title>
      </cc:Work>
    </rdf:RDF>
  </metadata>
  <g
     inkscape:label="Ebene 1"
     inkscape:groupmode="layer"
     id="layer1"
     transform="translate(-75.261124,-0.6298749)">
    <g
       id="g36"
       transform="matrix(0.35277777,0,0,-0.33368491,87.495846,2.5584183)"
       style="stroke-width:1.02821124">
      <path
         style="fill:#666666;fill-opacity:1;fill-rule:nonzero;stroke:none;stroke-width:1.02821124" stroke="#666666"
         d="m 5.2089844,-29.988281 c -6.5567778,-0.346809 -15.9887244,2.63836 -15.1035156,10.759765 -0.7789228,6.722842 1.2372984,17.6524075 10.0898437,17.119141 7.2969863,1.12447295 18.8771115,-1.4451818 17.6074215,-10.994141 1.185882,-6.95056 -1.771409,-15.42213 -9.3515621,-16.876953 -1.0806107,0.02487 -2.1610457,-0.05706 -3.2421875,-0.0078 z m -0.921875,4.765625 c 4.91901,-0.714261 10.0796706,3.175217 9.0097656,8.46289 1.109793,4.612311 -1.423411,11.1850668 -7.1484375,9.9648441 -5.33378809,1.505084 -12.8938719,-0.8878566 -11.2207031,-7.7578121 -1.1909626,-4.402185 0.2690752,-11.049267 6.04492185,-10.529297 1.10508095,-0.06598 2.20961875,-0.07125 3.31445315,-0.140625 z m -0.9453125,8.630859 c 0.204609,3.731594 3.0519675,-0.640651 0,0 z"
         id="path38"
         inkscape:connector-curvature="0" />
    </g>
    <g
       id="g40"
       transform="matrix(0.35277777,0,0,-0.33368491,99.912742,17.802645)"
       style="stroke-width:1.02821124">
      <path
         d="m 0,0 c -33.402,0 -60.48,-27.078 -60.48,-60.48 0,-12.421 3.746,-23.965 10.167,-33.569 H 52.742 c 5.424,9.907 7.738,21.637 7.738,33.569 C 60.48,-29.566 33.402,0 0,0"
         style="fill:#ffffff;fill-opacity:1;fill-rule:nonzero;stroke:none;stroke-width:1.02821124" stroke="#666666"
         id="path42"
         inkscape:connector-curvature="0" />
    </g>
    <g
       id="g44"
       transform="matrix(0.35277777,0,0,-0.33368491,99.912707,16.370235)"
       style="stroke-width:1.02821124">
      <path
         style="fill:#666666;fill-opacity:1;fill-rule:nonzero;stroke:none;stroke-width:1.02821124" stroke="#666666"
         d="m -54.714844,-95.519531 c -14.564647,24.750123 -8.752024,59.260041 13.295353,77.87019 21.05753,19.3242734 55.7536,20.9781572 78.180124,3.072372 19.488231,-14.297697 29.725898,-39.792342 25.004992,-63.577328 -0.980016,-6.258368 -2.717504,-12.40128 -5.439453,-18.1875 -4.412364,-0.806564 -6.0311,-0.06851 -3.402344,3.601563 8.495225,20.277331 7.096097,45.309903 -7.083984,62.757812 C 31.822931,-10.986308 5.7709374,-1.6511644 -16.893916,-9.0902193 -42.943007,-16.515596 -61.213226,-43.902204 -57.875,-70.818359 c 0.929415,-9.062209 4.049539,-17.888045 9.017578,-25.523438 -1.72396,0.529679 -4.972441,-1.083616 -5.857422,0.822266 z"
         id="path46"
         inkscape:connector-curvature="0" />
    </g>
    <g
       id="g48"
       transform="matrix(0.35277777,0,0,-0.33368491,95.605008,43.842381)"
       style="stroke-width:1.02821124">
      <path
         style="fill:#666666;fill-opacity:1;fill-rule:nonzero;stroke:none;stroke-width:1.02821124" stroke="#666666"
         d="m -6.0058594,-3.8007812 c -5.6435056,0.1293571 -3.8747243,9.2416328 1.3320313,7.4335937 4.24362885,-1.2583794 3.0662685,-7.7057716 -1.3320313,-7.4335937 z"
         id="path50"
         inkscape:connector-curvature="0" />
    </g>
    <g
       id="g52"
       transform="matrix(0.35277777,0,0,-0.33368491,108.3169,43.842381)"
       style="stroke-width:1.02821124">
      <path
         style="fill:#666666;fill-opacity:1;fill-rule:nonzero;stroke:none;stroke-width:1.02821124" stroke="#666666"
         d="m -6.0058594,-3.8007812 c -5.6435056,0.1293571 -3.8747243,9.2416328 1.3320313,7.4335937 4.24362885,-1.2583794 3.0662685,-7.7057716 -1.3320313,-7.4335937 z"
         id="path54"
         inkscape:connector-curvature="0" />
    </g>
    <g
       id="g56"
       transform="matrix(0.35277777,0,0,-0.33368491,-40.439618,55.493438)"
       style="stroke-width:1.02821124">
      <path
         d="m 331.83512,37.123107 32.228,34.18 -7.757,-24.319 c 25.161,18.31 51.575,15.415 70.174,9.953 19.741,-5.796 33.562,11.639 20.032,30.238 -6.429,8.839 -15.248,16.178003 -25.265,20.629003 -26.273,11.671 -52.688,4.866 -70.507,-13.134003 -18.876,-19.068 -18.905,-40.217 -18.905,-57.547"
         style="fill:#ffffff;fill-opacity:1;fill-rule:nonzero;stroke:none;stroke-width:1.02821124" stroke="#666666"
         id="path58"
         inkscape:connector-curvature="0" />
    </g>
    <g
       id="g60"
       transform="matrix(0.35277777,0,0,-0.33368491,98.84439,18.995134)"
       style="stroke-width:1.02821124">
      <path
         style="fill:#666666;fill-opacity:1;fill-rule:nonzero;stroke:none;stroke-width:1.02821124" stroke="#666666"
         d="m -65.251953,-72.162109 c -0.756283,20.025446 2.662506,41.195848 16.947265,56.376953 16.05456,18.8419499 43.4258165,27.245672 67.072266,19.5898435 16.892515,-5.1216459 32.7886,-16.9932955 39.46875,-33.5937495 4.621001,-11.362266 -3.735586,-25.07317 -16.054687,-25.767579 -11.00865,-0.811364 -21.199791,4.980931 -32.2656254,4.865235 -19.0946612,1.619531 -38.1393646,-5.369409 -52.7167966,-17.580078 2.064899,6.576884 4.358877,13.087894 5.896484,19.816406 -9.944802,-9.332006 -18.857122,-19.694898 -28.347656,-29.480469 0,1.924479 0,3.848958 0,5.773438 z m 8.197265,9.609375 c 10.523438,11.160807 21.046875,22.321614 31.570313,33.482422 -2.9114,-9.127623 -5.823672,-18.254968 -8.734375,-27.382813 20.507137,12.301413 45.702528,13.096719 68.091797,5.902344 8.592667,-2.651202 19.932946,1.990518 20.845703,11.771484 0.854426,12.30382 -9.459996,21.705247 -18.214844,28.775391 C 16.130751,5.413222 -14.228299,6.1797937 -34.662109,-9.5273438 -50.786054,-20.888327 -60.20309,-40.148103 -60.443359,-59.748047 c 0.343923,-4.752603 -2.336268,-10.027964 3.388671,-2.804687 z"
         id="path62"
         inkscape:connector-curvature="0" />
    </g>
    <g
       id="g64"
       transform="matrix(0.35277777,0,0,-0.33368491,106.72996,17.336921)"
       style="fill:#ffffff;stroke-width:1.02821124">
      <path
         d="m -3.7880721,0 c -3.821,-9.956 -14.9009999,-15.515 -25.1669999,-12.625 -11.566,3.257 -17.673,12.552 -16.207,24.342 1.459,11.725 9.382,22.005 18.515,34.677 -7.502,-15.969 -1.129,-17.465 0.887,-17.385 1.992,0.079 4.9,-0.261 9.039,-1.634 C -5.4440721,23.632 0.51692787,11.218 -3.7880721,0"
         style="fill:#ffffff;fill-opacity:1;fill-rule:nonzero;stroke:none;stroke-width:1.02821124" stroke="#666666"
         id="path66"
         inkscape:connector-curvature="0" />
    </g>
    <g
       id="g68"
       transform="matrix(0.35277777,0,0,-0.33368491,94.913669,6.9569859)"
       style="fill-rule:nonzero;stroke-width:1.02821124">
      <path
         style="fill:#666666;fill-opacity:1;fill-rule:nonzero;stroke:none;stroke-width:1.02821124" stroke="#666666"
         d="M 9.2441406,-44.951172 C -4.3054667,-44.801182 -16.179338,-32.113689 -14.162109,-18.4375 -12.844347,-4.813518 -6.4317578,1.6809312 1.1456473,12.443674 5.5284898,11.275964 7.2843686,10.757358 5.5577567,7.3810363 4.5535404,4.3082091 4.1834861,0.68488631 9.234375,2.0039062 22.017944,1.7654818 33.748435,-8.9292353 33.314453,-22.029297 33.345543,-34.784365 22.008141,-45.535196 9.2441406,-44.951172 Z M 10.25,-40.382812 c 12.669708,-0.345165 22.432351,14.199826 17.044922,25.755859 C 23.969436,-5.6954506 13.992332,-2.4156224 5.2910156,-2.2011719 1.4850138,-2.0595981 0.83617944,7.3448126 -1.4761064,1.4104659 -8.0744177,-8.3179466 -13.851288,-22.642518 -5.5410156,-33.095703 -1.7222595,-37.666266 4.3181039,-40.368915 10.25,-40.382812 Z"
         id="path70"
         inkscape:connector-curvature="0"
         sodipodi:nodetypes="ccccccccccccc" />
    </g>
    <g
       id="g72"
       transform="matrix(0.35277777,0,0,-0.33368491,101.67458,29.925236)"
       style="fill:#ffffff;stroke-width:1.02821124">
      <path
         d="m 0,0 c -1.503,0 -2.911,0.668 -3.861,1.832 l -2.888,3.537 c -1.674,2.05 -1.434,5.049 0.501,6.811 -0.625,0.306 -1.184,0.747 -1.638,1.303 l -0.659,0.807 c -1.734,2.123 -1.417,5.26 0.705,6.993 l 0.415,0.339 -4.23,5.192 c -1.881,2.304 -1.536,5.713 0.77,7.597 0.967,0.788 2.179,1.219 3.417,1.219 1.626,0 3.151,-0.722 4.182,-1.982 L 14.757,11.441 C 16.635,9.14 16.29,5.731 13.984,3.847 13.348,3.327 12.586,2.953 11.784,2.768 11.386,2.676 10.976,2.63 10.567,2.63 v 0 C 9.161,2.63 7.832,3.169 6.831,4.128 L 3.15,1.123 C 2.263,0.399 1.144,0 0,0"
         style="fill:#ffffff;fill-opacity:1;fill-rule:nonzero;stroke:none;stroke-width:1.02821124"
         id="path74"
         inkscape:connector-curvature="0" />
    </g>
    <g
       id="g76"
       transform="matrix(0.35277777,0,0,-0.33368491,101.73284,17.444867)"
       style="stroke-width:1.02821124">
      <path
         style="fill:#666666;fill-opacity:1;fill-rule:nonzero;stroke:none;stroke-width:1.02821124;" 
         d="m 0.20117188,-37.373047 c -5.50788998,0.975947 -10.85944388,7.88268 -8.20507808,13.431641 -2.8522728,2.526372 -3.4718258,6.946 -1.0625,10.007812 C -13.546039,-10.7105 -16.199186,-2.8541096 -10.294922,0.375 -3.7989089,3.9949105 0.88446381,-4.0386365 4.1445012,-8.2717961 8.2829328,-14.714782 15.409072,-19.58545 17.980469,-26.880859 19.019627,-32.545687 12.06853,-36.82467 7.3105469,-33.771484 5.2838751,-35.460448 3.186679,-37.645716 0.20117188,-37.373047 Z m 0.54296874,3.019531 c 3.70927438,0.34567 5.75399178,6.659329 8.85351558,2.939454 4.0774098,-1.954346 7.4877258,4.167104 3.9240638,6.805385 -6.4932199,7.277769 -11.8487432,15.8531213 -18.8732825,22.530552 -4.1131525,1.98013879 -7.4845325,-4.1691236 -3.9310389,-6.8007982 1.731301,-2.6799918 6.4100103,-5.3026188 2.3587733,-7.5351388 -2.7012605,-3.649014 3.3955366,-8.785622 6.3308898,-4.869073 2.1285085,1.073593 -3.9996643,-2.675795 -4.8738586,-4.636787 -1.2085921,-3.220253 2.9146814,-8.276675 6.21093752,-8.433594 z"
         id="path78"
         inkscape:connector-curvature="0" />
    </g>
  </g>
</svg>
